Katibeh-Latin - Kerning, Without Production Names.ufo
<glyph name="period" format="1">
  <advance width="154"/>
  <unicode hex="002E"/>
  <outline>
    <contour>
      <point x="22" y="25"/>
      <point x="55" y="-9"/>
      <point x="76" y="-9" type="curve" smooth="yes"/>
      <point x="97" y="-9"/>
      <point x="131" y="25"/>
      <point x="131" y="48" type="curve" smooth="yes"/>
      <point x="131" y="71"/>
      <point x="97" y="106"/>
      <point x="76" y="106" type="curve" smooth="yes"/>
      <point x="54" y="106"/>
      <point x="22" y="71"/>
      <point x="22" y="48" type="curve" smooth="yes"/>
    </contour>
  </outline>
</glyph>
<glyph name="J" format="1">
  <advance width="332"/>
  <unicode hex="004A"/>
  <outline>
    <contour>
      <point x="215" y="-9"/>
      <point x="269" y="50"/>
      <point x="269" y="173" type="curve" smooth="yes"/>
      <point x="269" y="336" type="line" smooth="yes"/>
      <point x="269" y="389"/>
      <point x="277" y="416"/>
      <point x="298" y="445" type="curve" smooth="yes"/>
      <point x="306" y="456" type="line"/>
      <point x="298" y="467" type="line"/>
      <point x="124" y="467" type="line"/>
      <point x="117" y="449" type="line"/>
      <point x="163" y="434"/>
      <point x="173" y="427"/>
      <point x="173" y="374" type="curve" smooth="yes"/>
      <point x="173" y="112" type="line" smooth="yes"/>
      <point x="173" y="53"/>
      <point x="158" y="17"/>
      <point x="125" y="17" type="curve" smooth="yes"/>
      <point x="97" y="17"/>
      <point x="85" y="45"/>
      <point x="85" y="75" type="curve" smooth="yes"/>
      <point x="85" y="109"/>
      <point x="97" y="139"/>
      <point x="114" y="154" type="curve"/>
      <point x="111" y="161" type="line"/>
      <point x="51" y="155"/>
      <point x="1" y="123"/>
      <point x="1" y="70" type="curve" smooth="yes"/>
      <point x="1" y="25"/>
      <point x="44" y="-9"/>
      <point x="112" y="-9" type="curve"/>
    </contour>
    <contour>
      <point x="216" y="467" type="move" name="top"/>
    </contour>
    <contour>
      <point x="167" y="0" type="move" name="bottom"/>
    </contour>
  </outline>
</glyph>
<glyph name="W" format="1">
  <advance width="701"/>
  <unicode hex="0057"/>
  <outline>
    <contour>
      <point x="266" y="0" type="line"/>
      <point x="361" y="319" type="line"/>
      <point x="338" y="319" type="line"/>
      <point x="435" y="0" type="line"/>
      <point x="521" y="0" type="line"/>
      <point x="647" y="377" type="line" smooth="yes"/>
      <point x="660" y="413"/>
      <point x="672" y="430"/>
      <point x="706" y="456" type="curve"/>
      <point x="698" y="467" type="line"/>
      <point x="577" y="467" type="line"/>
      <point x="571" y="449" type="line"/>
      <point x="589" y="442" type="line" smooth="yes"/>
      <point x="610" y="436"/>
      <point x="617" y="427"/>
      <point x="617" y="411" type="curve" smooth="yes"/>
      <point x="617" y="404"/>
      <point x="615" y="394"/>
      <point x="610" y="378" type="curve" smooth="yes"/>
      <point x="498" y="43" type="line"/>
      <point x="522" y="42" type="line"/>
      <point x="423" y="380" type="line" smooth="yes"/>
      <point x="418" y="396"/>
      <point x="416" y="404"/>
      <point x="416" y="412" type="curve" smooth="yes"/>
      <point x="416" y="430"/>
      <point x="423" y="439"/>
      <point x="444" y="445" type="curve" smooth="yes"/>
      <point x="459" y="449" type="line"/>
      <point x="452" y="467" type="line"/>
      <point x="270" y="467" type="line"/>
      <point x="262" y="456" type="line"/>
      <point x="295" y="430"/>
      <point x="307" y="414"/>
      <point x="320" y="377" type="curve" smooth="yes"/>
      <point x="331" y="342" type="line"/>
      <point x="242" y="42" type="line"/>
      <point x="267" y="43" type="line"/>
      <point x="154" y="380" type="line" smooth="yes"/>
      <point x="149" y="396"/>
      <point x="147" y="404"/>
      <point x="147" y="412" type="curve" smooth="yes"/>
      <point x="147" y="430"/>
      <point x="155" y="439"/>
      <point x="175" y="445" type="curve" smooth="yes"/>
      <point x="189" y="449" type="line"/>
      <point x="183" y="467" type="line"/>
      <point x="1" y="467" type="line"/>
      <point x="-7" y="456" type="line"/>
      <point x="26" y="430"/>
      <point x="38" y="414"/>
      <point x="51" y="377" type="curve" smooth="yes"/>
      <point x="179" y="0" type="line"/>
    </contour>
    <contour>
      <point x="351" y="467" type="move" name="top"/>
    </contour>
    <contour>
      <point x="351" y="0" type="move" name="bottom"/>
    </contour>
  </outline>
</glyph>
<glyph name="underscore" format="1">
  <advance width="231"/>
  <unicode hex="005F"/>
  <outline>
    <contour>
      <point x="231" y="-55" type="line"/>
      <point x="244" y="-45"/>
      <point x="248" y="-25"/>
      <point x="248" y="-9" type="curve"/>
      <point x="0" y="-9" type="line"/>
      <point x="-12" y="-19"/>
      <point x="-17" y="-39"/>
      <point x="-17" y="-55" type="curve"/>
    </contour>
  </outline>
</glyph>
<glyph name="s" format="1">
  <advance width="327"/>
  <unicode hex="0073"/>
  <outline>
    <contour>
      <point x="122" y="288"/>
      <point x="139" y="309"/>
      <point x="171" y="309" type="curve" smooth="yes"/>
      <point x="200" y="309"/>
      <point x="218" y="293"/>
      <point x="218" y="271" type="curve" smooth="yes"/>
      <point x="218" y="255"/>
      <point x="214" y="241"/>
      <point x="200" y="228" type="curve"/>
      <point x="211" y="222"/>
      <point x="225" y="219"/>
      <point x="237" y="219" type="curve" smooth="yes"/>
      <point x="263" y="219"/>
      <point x="287" y="231"/>
      <point x="287" y="264" type="curve" smooth="yes"/>
      <point x="287" y="305"/>
      <point x="238" y="332"/>
      <point x="171" y="332" type="curve" smooth="yes"/>
      <point x="96" y="332"/>
      <point x="37" y="296"/>
      <point x="37" y="235" type="curve" smooth="yes"/>
      <point x="37" y="119"/>
      <point x="204" y="130"/>
      <point x="204" y="60" type="curve" smooth="yes"/>
      <point x="204" y="29"/>
      <point x="176" y="14"/>
      <point x="148" y="14" type="curve" smooth="yes"/>
      <point x="124" y="14"/>
      <point x="100" y="27"/>
      <point x="100" y="56" type="curve" smooth="yes"/>
      <point x="100" y="72"/>
      <point x="105" y="89"/>
      <point x="117" y="98" type="curve"/>
      <point x="105" y="103"/>
      <point x="94" y="105"/>
      <point x="83" y="105" type="curve" smooth="yes"/>
      <point x="54" y="105"/>
      <point x="31" y="85"/>
      <point x="31" y="58" type="curve" smooth="yes"/>
      <point x="31" y="17"/>
      <point x="81" y="-9"/>
      <point x="148" y="-9" type="curve" smooth="yes"/>
      <point x="238" y="-9"/>
      <point x="297" y="28"/>
      <point x="297" y="86" type="curve" smooth="yes"/>
      <point x="297" y="192"/>
      <point x="122" y="183"/>
      <point x="122" y="264" type="curve" smooth="yes"/>
    </contour>
    <contour>
      <point x="163" y="325" type="move" name="top"/>
    </contour>
    <contour>
      <point x="163" y="0" type="move" name="bottom"/>
    </contour>
  </outline>
</glyph>
<glyph name="y" format="1">
  <advance width="406"/>
  <unicode hex="0079"/>
  <outline>
    <contour>
      <point x="228" y="312" type="line"/>
      <point x="236" y="301" type="line"/>
      <point x="254" y="278"/>
      <point x="261" y="249"/>
      <point x="261" y="202" type="curve" smooth="yes"/>
      <point x="261" y="112"/>
      <point x="231" y="52"/>
      <point x="185" y="52" type="curve" smooth="yes"/>
      <point x="162" y="52"/>
      <point x="150" y="71"/>
      <point x="150" y="108" type="curve" smooth="yes"/>
      <point x="150" y="310" type="line" smooth="yes"/>
      <point x="150" y="323"/>
      <point x="139" y="332"/>
      <point x="122" y="332" type="curve" smooth="yes"/>
      <point x="84" y="332"/>
      <point x="38" y="315"/>
      <point x="13" y="293" type="curve"/>
      <point x="16" y="282" type="line"/>
      <point x="47" y="282" type="line" smooth="yes"/>
      <point x="56" y="282"/>
      <point x="60" y="278"/>
      <point x="60" y="268" type="curve" smooth="yes"/>
      <point x="60" y="119" type="line" smooth="yes"/>
      <point x="60" y="45"/>
      <point x="88" y="10"/>
      <point x="146" y="10" type="curve" smooth="yes"/>
      <point x="195" y="10"/>
      <point x="243" y="46"/>
      <point x="261" y="97" type="curve"/>
      <point x="261" y="-30" type="line" smooth="yes"/>
      <point x="261" y="-106"/>
      <point x="238" y="-144"/>
      <point x="191" y="-144" type="curve" smooth="yes"/>
      <point x="163" y="-144"/>
      <point x="143" y="-123"/>
      <point x="143" y="-94" type="curve" smooth="yes"/>
      <point x="143" y="-73"/>
      <point x="149" y="-57"/>
      <point x="161" y="-45" type="curve"/>
      <point x="150" y="-40"/>
      <point x="137" y="-37"/>
      <point x="124" y="-37" type="curve" smooth="yes"/>
      <point x="89" y="-37"/>
      <point x="66" y="-61"/>
      <point x="66" y="-97" type="curve" smooth="yes"/>
      <point x="66" y="-138"/>
      <point x="112" y="-166"/>
      <point x="178" y="-166" type="curve" smooth="yes"/>
      <point x="286" y="-166"/>
      <point x="350" y="-105"/>
      <point x="350" y="0" type="curve" smooth="yes"/>
      <point x="350" y="330" type="line"/>
      <point x="235" y="321" type="line"/>
    </contour>
    <contour>
      <point x="203" y="325" type="move" name="top"/>
    </contour>
    <contour>
      <point x="203" y="0" type="move" name="bottom"/>
    </contour>
  </outline>
</glyph>
<glyph name="z" format="1">
  <advance width="322"/>
  <unicode hex="007A"/>
  <outline>
    <contour>
      <point x="289" y="287" type="line"/>
      <point x="307" y="297" type="line"/>
      <point x="307" y="309"/>
      <point x="303" y="317"/>
      <point x="294" y="325" type="curve"/>
      <point x="110" y="325" type="line" smooth="yes"/>
      <point x="69" y="325"/>
      <point x="50" y="329"/>
      <point x="32" y="341" type="curve"/>
      <point x="24" y="333" type="line"/>
      <point x="24" y="228" type="line"/>
      <point x="45" y="221" type="line"/>
      <point x="52" y="258" type="line" smooth="yes"/>
      <point x="58" y="284"/>
      <point x="73" y="295"/>
      <point x="101" y="295" type="curve" smooth="yes"/>
      <point x="193" y="295" type="line"/>
      <point x="16" y="20" type="line"/>
      <point x="23" y="0" type="line"/>
      <point x="212" y="0" type="line" smooth="yes"/>
      <point x="252" y="0"/>
      <point x="271" y="-4"/>
      <point x="289" y="-16" type="curve"/>
      <point x="297" y="-8" type="line"/>
      <point x="297" y="97" type="line"/>
      <point x="277" y="104" type="line"/>
      <point x="269" y="67" type="line" smooth="yes"/>
      <point x="263" y="41"/>
      <point x="249" y="30"/>
      <point x="220" y="30" type="curve" smooth="yes"/>
      <point x="124" y="30" type="line"/>
    </contour>
    <contour>
      <point x="168" y="325" type="move" name="top"/>
    </contour>
    <contour>
      <point x="161" y="0" type="move" name="bottom"/>
    </contour>
  </outline>
</glyph>
<glyph name="yen" format="1">
  <advance width="405"/>
  <unicode hex="00A5"/>
  <outline>
    <contour>
      <point x="354" y="169" type="line"/>
      <point x="365" y="175"/>
      <point x="369" y="187"/>
      <point x="369" y="197" type="curve"/>
      <point x="50" y="197" type="line"/>
      <point x="38" y="191"/>
      <point x="35" y="179"/>
      <point x="35" y="169" type="curve"/>
    </contour>
    <contour>
      <point x="149" y="285" type="line"/>
      <point x="50" y="285" type="line"/>
      <point x="38" y="279"/>
      <point x="35" y="267"/>
      <point x="35" y="257" type="curve"/>
      <point x="161" y="257" type="line"/>
    </contour>
    <contour>
      <point x="252" y="257" type="line"/>
      <point x="354" y="257" type="line"/>
      <point x="365" y="263"/>
      <point x="369" y="275"/>
      <point x="369" y="285" type="curve"/>
      <point x="268" y="285" type="line"/>
    </contour>
    <component base="Y" xOffset="2"/>
  </outline>
</glyph>
<glyph name="degree" format="1">
  <advance width="296"/>
  <unicode hex="00B0"/>
  <outline>
    <contour>
      <point x="191" y="293"/>
      <point x="172" y="255"/>
      <point x="145" y="255" type="curve" smooth="yes"/>
      <point x="120" y="255"/>
      <point x="104" y="290"/>
      <point x="104" y="353" type="curve" smooth="yes"/>
      <point x="104" y="417"/>
      <point x="123" y="454"/>
      <point x="150" y="454" type="curve" smooth="yes"/>
      <point x="175" y="454"/>
      <point x="191" y="420"/>
      <point x="191" y="357" type="curve" smooth="yes"/>
    </contour>
    <contour>
      <point x="22" y="282"/>
      <point x="70" y="235"/>
      <point x="148" y="235" type="curve" smooth="yes"/>
      <point x="225" y="235"/>
      <point x="275" y="282"/>
      <point x="275" y="355" type="curve" smooth="yes"/>
      <point x="275" y="428"/>
      <point x="225" y="475"/>
      <point x="148" y="475" type="curve" smooth="yes"/>
      <point x="70" y="475"/>
      <point x="22" y="428"/>
      <point x="22" y="355" type="curve" smooth="yes"/>
    </contour>
  </outline>
</glyph>
<glyph name="acute" format="1">
  <advance width="187"/>
  <unicode hex="00B4"/>
  <outline>
    <contour>
      <point x="37" y="385" type="line"/>
      <point x="50" y="369" type="line"/>
      <point x="133" y="399" type="line" smooth="yes"/>
      <point x="165" y="410"/>
      <point x="177" y="428"/>
      <point x="177" y="449" type="curve" smooth="yes"/>
      <point x="177" y="470"/>
      <point x="162" y="485"/>
      <point x="139" y="494" type="curve"/>
    </contour>
  </outline>
</glyph>
<glyph name="micro" format="1">
  <advance width="429"/>
  <unicode hex="00B5"/>
  <outline>
    <contour>
      <point x="320" y="0" type="line"/>
      <point x="359" y="0" type="line"/>
      <point x="359" y="330" type="line"/>
      <point x="250" y="321" type="line"/>
      <point x="242" y="312" type="line"/>
      <point x="264" y="281"/>
      <point x="270" y="244"/>
      <point x="270" y="185" type="curve" smooth="yes"/>
      <point x="270" y="92"/>
      <point x="237" y="32"/>
      <point x="191" y="32" type="curve" smooth="yes"/>
      <point x="164" y="32"/>
      <point x="150" y="55"/>
      <point x="150" y="98" type="curve" smooth="yes"/>
      <point x="150" y="310" type="line" smooth="yes"/>
      <point x="150" y="319"/>
      <point x="146" y="325"/>
      <point x="139" y="328" type="curve" smooth="yes"/>
      <point x="133" y="331"/>
      <point x="123" y="331"/>
      <point x="114" y="330" type="curve" smooth="yes"/>
      <point x="75" y="328"/>
      <point x="35" y="312"/>
      <point x="13" y="293" type="curve"/>
      <point x="16" y="282" type="line"/>
      <point x="60" y="268" type="line"/>
      <point x="60" y="-33" type="line" smooth="yes"/>
      <point x="60" y="-77"/>
      <point x="58" y="-97"/>
      <point x="51" y="-107" type="curve" smooth="yes"/>
      <point x="43" y="-119" type="line"/>
      <point x="51" y="-127" type="line"/>
      <point x="147" y="-136" type="line"/>
      <point x="147" y="-5" type="line"/>
      <point x="160" y="-7"/>
      <point x="172" y="-6"/>
      <point x="185" y="-2" type="curve" smooth="yes"/>
      <point x="223" y="7"/>
      <point x="252" y="34"/>
      <point x="268" y="72" type="curve"/>
    </contour>
  </outline>
</glyph>
<glyph name="ordmasculine" format="1">
  <advance width="281"/>
  <unicode hex="00BA"/>
  <outline>
    <contour>
      <point x="184" y="294"/>
      <point x="165" y="253"/>
      <point x="140" y="253" type="curve" smooth="yes"/>
      <point x="114" y="253"/>
      <point x="98" y="293"/>
      <point x="98" y="355" type="curve" smooth="yes"/>
      <point x="98" y="417"/>
      <point x="116" y="459"/>
      <point x="142" y="459" type="curve" smooth="yes"/>
      <point x="174" y="459"/>
      <point x="184" y="395"/>
      <point x="184" y="354" type="curve" smooth="yes"/>
    </contour>
    <contour>
      <point x="18" y="282"/>
      <point x="66" y="235"/>
      <point x="141" y="235" type="curve" smooth="yes"/>
      <point x="216" y="235"/>
      <point x="264" y="282"/>
      <point x="264" y="356" type="curve" smooth="yes"/>
      <point x="264" y="430"/>
      <point x="216" y="476"/>
      <point x="141" y="476" type="curve" smooth="yes"/>
      <point x="66" y="476"/>
      <point x="18" y="430"/>
      <point x="18" y="356" type="curve" smooth="yes"/>
    </contour>
  </outline>
</glyph>
<glyph name="thorn" format="1">
  <advance width="399"/>
  <unicode hex="00FE"/>
  <outline>
    <contour>
      <point x="217" y="332"/>
      <point x="182" y="311"/>
      <point x="148" y="263" type="curve"/>
      <point x="148" y="469" type="line" smooth="yes"/>
      <point x="148" y="482"/>
      <point x="137" y="490"/>
      <point x="120" y="490" type="curve" smooth="yes"/>
      <point x="81" y="490"/>
      <point x="36" y="475"/>
      <point x="11" y="451" type="curve"/>
      <point x="14" y="441" type="line"/>
      <point x="45" y="441" type="line" smooth="yes"/>
      <point x="53" y="441"/>
      <point x="58" y="434"/>
      <point x="58" y="423" type="curve" smooth="yes"/>
      <point x="58" y="-53" type="line" smooth="yes"/>
      <point x="58" y="-94"/>
      <point x="53" y="-115"/>
      <point x="37" y="-137" type="curve" smooth="yes"/>
      <point x="29" y="-147" type="line"/>
      <point x="37" y="-157" type="line"/>
      <point x="192" y="-157" type="line"/>
      <point x="198" y="-140" type="line"/>
      <point x="185" y="-137" type="line" smooth="yes"/>
      <point x="153" y="-130"/>
      <point x="148" y="-123"/>
      <point x="148" y="-91" type="curve" smooth="yes"/>
      <point x="148" y="230" type="line"/>
      <point x="165" y="265"/>
      <point x="187" y="283"/>
      <point x="214" y="283" type="curve" smooth="yes"/>
      <point x="254" y="283"/>
      <point x="276" y="240"/>
      <point x="276" y="161" type="curve" smooth="yes"/>
      <point x="276" y="71"/>
      <point x="247" y="23"/>
      <point x="192" y="23" type="curve" smooth="yes"/>
      <point x="177" y="23"/>
      <point x="158" y="28"/>
      <point x="145" y="38" type="curve"/>
      <point x="140" y="31" type="line"/>
      <point x="159" y="7"/>
      <point x="193" y="-6"/>
      <point x="230" y="-6" type="curve" smooth="yes"/>
      <point x="315" y="-6"/>
      <point x="376" y="68"/>
      <point x="376" y="171" type="curve" smooth="yes"/>
      <point x="376" y="267"/>
      <point x="330" y="332"/>
      <point x="262" y="332" type="curve" smooth="yes"/>
    </contour>
  </outline>
</glyph>
<glyph name="jdotless" format="1">
  <advance width="197"/>
  <unicode hex="0237"/>
  <outline>
    <contour>
      <point x="-88" y="-139"/>
      <point x="-45" y="-166"/>
      <point x="16" y="-166" type="curve" smooth="yes"/>
      <point x="97" y="-166"/>
      <point x="150" y="-109"/>
      <point x="150" y="0" type="curve" smooth="yes"/>
      <point x="150" y="310" type="line" smooth="yes"/>
      <point x="150" y="324"/>
      <point x="138" y="332"/>
      <point x="121" y="332" type="curve" smooth="yes"/>
      <point x="81" y="332"/>
      <point x="35" y="314"/>
      <point x="11" y="293" type="curve"/>
      <point x="14" y="282" type="line"/>
      <point x="45" y="282" type="line" smooth="yes"/>
      <point x="54" y="282"/>
      <point x="58" y="278"/>
      <point x="58" y="268" type="curve" smooth="yes"/>
      <point x="58" y="-77" type="line" smooth="yes"/>
      <point x="58" y="-122"/>
      <point x="45" y="-143"/>
      <point x="22" y="-143" type="curve" smooth="yes"/>
      <point x="-2" y="-143"/>
      <point x="-11" y="-120"/>
      <point x="-11" y="-95" type="curve" smooth="yes"/>
      <point x="-11" y="-76"/>
      <point x="-5" y="-56"/>
      <point x="7" y="-45" type="curve"/>
      <point x="-4" y="-40"/>
      <point x="-17" y="-37"/>
      <point x="-30" y="-37" type="curve" smooth="yes"/>
      <point x="-65" y="-37"/>
      <point x="-88" y="-61"/>
      <point x="-88" y="-97" type="curve" smooth="yes"/>
    </contour>
    <contour>
      <point x="104" y="325" type="move" name="top"/>
    </contour>
    <contour>
      <point x="104" y="0" type="move" name="bottom"/>
    </contour>
  </outline>
</glyph>
<glyph name="hungarumlaut" format="1">
  <advance width="345"/>
  <unicode hex="02DD"/>
  <outline>
    <contour>
      <point x="40" y="386" type="line"/>
      <point x="53" y="371" type="line"/>
      <point x="133" y="400" type="line" smooth="yes"/>
      <point x="163" y="411"/>
      <point x="174" y="428"/>
      <point x="174" y="449" type="curve" smooth="yes"/>
      <point x="174" y="468"/>
      <point x="161" y="483"/>
      <point x="139" y="492" type="curve"/>
    </contour>
    <contour>
      <point x="175" y="386" type="line"/>
      <point x="187" y="371" type="line"/>
      <point x="267" y="400" type="line" smooth="yes"/>
      <point x="298" y="411"/>
      <point x="308" y="428"/>
      <point x="308" y="449" type="curve" smooth="yes"/>
      <point x="308" y="468"/>
      <point x="295" y="483"/>
      <point x="273" y="492" type="curve"/>
    </contour>
  </outline>
</glyph>
<glyph name="tildecomb" format="1">
  <advance width="265"/>
  <unicode hex="0303"/>
  <outline>
    <contour>
      <point x="220" y="470" type="line"/>
      <point x="201" y="452"/>
      <point x="185" y="444"/>
      <point x="173" y="444" type="curve" smooth="yes"/>
      <point x="146" y="444"/>
      <point x="137" y="470"/>
      <point x="106" y="470" type="curve" smooth="yes"/>
      <point x="78" y="470"/>
      <point x="53" y="442"/>
      <point x="27" y="400" type="curve"/>
      <point x="43" y="385" type="line"/>
      <point x="62" y="402"/>
      <point x="79" y="410"/>
      <point x="91" y="410" type="curve" smooth="yes"/>
      <point x="118" y="410"/>
      <point x="126" y="385"/>
      <point x="158" y="385" type="curve" smooth="yes"/>
      <point x="186" y="385"/>
      <point x="211" y="412"/>
      <point x="237" y="455" type="curve"/>
    </contour>
    <contour>
      <point x="133" y="472" type="move" name="top"/>
    </contour>
    <contour>
      <point x="133" y="325" type="move" name="_top"/>
    </contour>
  </outline>
</glyph>
<glyph name="commaturnedabovecomb" format="1">
  <advance width="132"/>
  <unicode hex="0312"/>
  <outline>
    <contour>
      <point x="113" y="381" type="line"/>
      <point x="111" y="396" type="line"/>
      <point x="103" y="402" type="line" smooth="yes"/>
      <point x="91" y="411"/>
      <point x="85" y="422"/>
      <point x="85" y="436" type="curve" smooth="yes"/>
      <point x="85" y="445"/>
      <point x="88" y="455"/>
      <point x="93" y="466" type="curve" smooth="yes"/>
      <point x="116" y="517" type="line"/>
      <point x="97" y="529" type="line"/>
      <point x="73" y="505" type="line" smooth="yes"/>
      <point x="38" y="472"/>
      <point x="15" y="444"/>
      <point x="15" y="414" type="curve" smooth="yes"/>
      <point x="15" y="381"/>
      <point x="36" y="368"/>
      <point x="62" y="368" type="curve" smooth="yes"/>
      <point x="75" y="368"/>
      <point x="91" y="370"/>
      <point x="107" y="378" type="curve" smooth="yes"/>
    </contour>
    <contour>
      <point x="66" y="575" type="move" name="top"/>
    </contour>
    <contour>
      <point x="66" y="325" type="move" name="_top"/>
    </contour>
  </outline>
</glyph>
<glyph name="dagger" format="1">
  <advance width="393"/>
  <unicode hex="2020"/>
  <outline>
    <contour>
      <point x="203" y="-76" type="line"/>
      <point x="231" y="360" type="line"/>
      <point x="353" y="337" type="line"/>
      <point x="364" y="347"/>
      <point x="370" y="363"/>
      <point x="370" y="383" type="curve" smooth="yes"/>
      <point x="370" y="402"/>
      <point x="364" y="418"/>
      <point x="353" y="429" type="curve"/>
      <point x="234" y="406" type="line"/>
      <point x="244" y="518" type="line"/>
      <point x="233" y="532"/>
      <point x="216" y="538"/>
      <point x="196" y="538" type="curve" smooth="yes"/>
      <point x="176" y="538"/>
      <point x="160" y="532"/>
      <point x="149" y="518" type="curve"/>
      <point x="158" y="406" type="line"/>
      <point x="40" y="429" type="line"/>
      <point x="28" y="418"/>
      <point x="23" y="402"/>
      <point x="23" y="383" type="curve" smooth="yes"/>
      <point x="23" y="363"/>
      <point x="28" y="347"/>
      <point x="40" y="337" type="curve"/>
      <point x="161" y="360" type="line"/>
      <point x="190" y="-76" type="line"/>
    </contour>
  </outline>
</glyph>
<glyph name="eight.dnom" format="1">
  <advance width="268"/>
  <outline>
    <contour>
      <point x="72" y="288"/>
      <point x="27" y="255"/>
      <point x="27" y="204" type="curve" smooth="yes"/>
      <point x="27" y="107"/>
      <point x="176" y="111"/>
      <point x="176" y="52" type="curve" smooth="yes"/>
      <point x="176" y="30"/>
      <point x="159" y="14"/>
      <point x="134" y="14" type="curve" smooth="yes"/>
      <point x="108" y="14"/>
      <point x="93" y="31"/>
      <point x="93" y="61" type="curve" smooth="yes"/>
      <point x="93" y="97"/>
      <point x="111" y="125"/>
      <point x="142" y="138" type="curve"/>
      <point x="133" y="143" type="line"/>
      <point x="65" y="140"/>
      <point x="21" y="107"/>
      <point x="21" y="60" type="curve" smooth="yes"/>
      <point x="21" y="17"/>
      <point x="61" y="-9"/>
      <point x="126" y="-9" type="curve" smooth="yes"/>
      <point x="200" y="-9"/>
      <point x="247" y="23"/>
      <point x="247" y="73" type="curve" smooth="yes"/>
      <point x="247" y="167"/>
      <point x="97" y="164"/>
      <point x="97" y="229" type="curve" smooth="yes"/>
      <point x="97" y="250"/>
      <point x="113" y="265"/>
      <point x="133" y="265" type="curve" smooth="yes"/>
      <point x="156" y="265"/>
      <point x="170" y="249"/>
      <point x="170" y="222" type="curve" smooth="yes"/>
      <point x="170" y="191"/>
      <point x="154" y="164"/>
      <point x="127" y="152" type="curve"/>
      <point x="128" y="146" type="line"/>
      <point x="194" y="148"/>
      <point x="241" y="179"/>
      <point x="241" y="221" type="curve" smooth="yes"/>
      <point x="241" y="262"/>
      <point x="203" y="288"/>
      <point x="141" y="288" type="curve" smooth="yes"/>
    </contour>
  </outline>
</glyph>
<glyph name="eslash" format="1">
  <advance width="226"/>
  <outline>
    <contour>
      <point x="207" y="261" type="line" smooth="yes"/>
      <point x="219" y="268"/>
      <point x="222" y="278"/>
      <point x="222" y="307" type="curve"/>
      <point x="21" y="206" type="line" smooth="yes"/>
      <point x="8" y="199"/>
      <point x="5" y="189"/>
      <point x="5" y="160" type="curve"/>
    </contour>
  </outline>
</glyph>
<glyph name="three.osf" format="1">
  <advance width="380"/>
  <outline>
    <contour>
      <point x="250" y="-69"/>
      <point x="217" y="-100"/>
      <point x="179" y="-100" type="curve" smooth="yes"/>
      <point x="148" y="-100"/>
      <point x="119" y="-78"/>
      <point x="115" y="-38" type="curve" smooth="yes"/>
      <point x="113" y="-28"/>
      <point x="114" y="-18"/>
      <point x="115" y="-8" type="curve" smooth="yes"/>
      <point x="118" y="13"/>
      <point x="128" y="32"/>
      <point x="145" y="44" type="curve"/>
      <point x="143" y="51" type="line"/>
      <point x="80" y="49"/>
      <point x="20" y="23"/>
      <point x="20" y="-30" type="curve" smooth="yes"/>
      <point x="20" y="-92"/>
      <point x="92" y="-126"/>
      <point x="177" y="-126" type="curve" smooth="yes"/>
      <point x="282" y="-126"/>
      <point x="351" y="-82"/>
      <point x="351" y="-3" type="curve" smooth="yes"/>
      <point x="351" y="53"/>
      <point x="304" y="100"/>
      <point x="210" y="115" type="curve"/>
      <point x="289" y="137"/>
      <point x="338" y="173"/>
      <point x="338" y="228" type="curve" smooth="yes"/>
      <point x="338" y="297"/>
      <point x="256" y="332"/>
      <point x="178" y="332" type="curve" smooth="yes"/>
      <point x="99" y="332"/>
      <point x="31" y="299"/>
      <point x="31" y="241" type="curve" smooth="yes"/>
      <point x="31" y="190"/>
      <point x="79" y="165"/>
      <point x="144" y="164" type="curve"/>
      <point x="146" y="171" type="line"/>
      <point x="130" y="187"/>
      <point x="124" y="214"/>
      <point x="124" y="240" type="curve" smooth="yes"/>
      <point x="124" y="281"/>
      <point x="145" y="303"/>
      <point x="169" y="306" type="curve" smooth="yes"/>
      <point x="178" y="308"/>
      <point x="187" y="307"/>
      <point x="196" y="304" type="curve" smooth="yes"/>
      <point x="217" y="296"/>
      <point x="236" y="272"/>
      <point x="236" y="231" type="curve" smooth="yes"/>
      <point x="236" y="193"/>
      <point x="224" y="139"/>
      <point x="119" y="114" type="curve" smooth="yes"/>
      <point x="91" y="108" type="line"/>
      <point x="94" y="89" type="line"/>
      <point x="103" y="91"/>
      <point x="126" y="96"/>
      <point x="144" y="96" type="curve" smooth="yes"/>
      <point x="237" y="96"/>
      <point x="250" y="32"/>
      <point x="250" y="-3" type="curve" smooth="yes"/>
    </contour>
  </outline>
</glyph>
